<?xml version="1.0" standalone="no"?>
<!DOCTYPE svg PUBLIC "-//W3C//DTD SVG 20010904//EN"
 "http://www.w3.org/TR/2001/REC-SVG-20010904/DTD/svg10.dtd">
<svg version="1.0" xmlns="http://www.w3.org/2000/svg"
 width="389.000000pt" height="389.000000pt" viewBox="0 0 389.000000 389.000000"
 preserveAspectRatio="xMidYMid meet">
<metadata>
Created by potrace 1.11, written by Peter Selinger 2001-2013
</metadata>
<g transform="translate(0.000000,389.000000) scale(0.100000,-0.100000)"
fill="#000000" stroke="none">
<path d="M1796 3851 c-3 -9 -7 -27 -10 -41 -3 -14 -7 -34 -10 -45 -6 -26 -106
-479 -111 -502 -2 -10 -10 -47 -19 -83 -8 -36 -17 -76 -20 -90 -3 -14 -11 -54
-19 -90 -8 -36 -33 -147 -56 -247 -22 -100 -42 -192 -45 -205 -2 -13 -12 -54
-21 -93 -9 -38 -19 -81 -22 -95 -2 -14 -31 -144 -64 -290 -33 -146 -61 -274
-63 -285 -2 -11 -36 -163 -75 -338 -39 -176 -73 -331 -76 -345 -3 -15 -9 -42
-14 -59 -5 -18 -8 -33 -6 -33 3 0 0 -11 -5 -26 -6 -14 -12 -38 -15 -54 -3 -17
-12 -58 -20 -92 -8 -35 -16 -74 -19 -88 -2 -14 -21 -97 -41 -185 -20 -88 -43
-189 -50 -225 -33 -155 -66 -306 -71 -323 -5 -16 15 -17 362 -15 l367 3 4 25
c2 14 17 81 33 150 24 106 95 423 105 470 4 20 83 378 135 610 23 102 61 275
86 385 24 110 55 252 70 315 31 138 32 145 40 190 4 19 9 39 12 45 4 7 123
-511 243 -1065 6 -30 20 -91 30 -135 53 -232 149 -677 149 -692 1 -16 2 -16
10 -2 5 8 11 26 14 40 2 13 9 44 15 69 5 25 12 57 15 73 2 15 7 35 10 45 3 9
8 29 11 44 7 39 11 55 50 228 14 63 27 124 29 135 2 11 23 103 46 205 57 254
130 580 136 610 5 26 15 73 21 100 13 53 14 94 3 141 -6 30 -14 65 -16 79 -4
20 -34 155 -49 220 -7 29 -36 165 -40 185 -3 11 -11 49 -19 85 -23 98 -77 342
-82 370 -3 14 -11 53 -19 88 -8 34 -17 77 -20 95 -3 17 -9 46 -14 62 -5 17
-14 57 -21 90 -7 33 -19 85 -26 115 -7 30 -15 69 -18 85 -3 17 -17 82 -32 145
-14 63 -28 124 -30 135 -2 11 -9 43 -15 71 l-11 51 -364 0 c-326 0 -364 -1
-368 -16z"/>
</g>
</svg>
