<svg id="a2" xmlns="http://www.w3.org/2000/svg" viewBox="0 0 1244.49 391.3"><defs><style>.cls-1{fill:#79d894;}.cls-2{fill:#98ff9b;}</style></defs><title>aurora-logo_final v1</title><path class="cls-1" d="M1244.48,194l-43.64,191.2H1156l4.81-20.7q-31.47,25.17-62.32,25.17-38,0-59.2-25.78t-16.93-66.78q5-47.29,35.55-77.53,31-30.24,74.42-30.24,20.5,0,34.21,6.7,13.91,6.7,27.4,23.14l5.69-25.17h44.85Zm-64.07,90.12q2.67-25.37-10.28-41.2-12.93-16-36.07-16-25.17,0-44.29,19.69-19.14,19.9-22.17,48.71-2.65,25.17,9.88,41.2t34.85,16q24.76,0,44.94-20.09,20.22-20.5,23.14-48.3h0Z"/><path class="cls-1" d="M945.71,194L942,210.45q25-21.51,48.13-21.51,20.29,0,35.38,14.82L993,240.69q-11.27-10.55-23.65-10.55A34.5,34.5,0,0,0,954,233.49,35.23,35.23,0,0,0,941.57,244a73.6,73.6,0,0,0-9.87,18.57,194.34,194.34,0,0,0-7.83,27.2l-21.8,95.39H857.22L900.86,194h44.85Z"/><path class="cls-1" d="M828.49,287.78q-4.61,43.84-38.19,73.68-33.38,29.84-77.83,29.84-46.48,0-72.94-28.21-26.65-28.41-22.08-71.85,4.67-44.45,38.41-73.88,34-29.63,80.24-29.63,45.46,0,71.14,28Q833.16,243.33,828.49,287.78Zm-45-2.23q2.9-27.6-11.45-43.64-14.29-16.64-40.26-16.64a65.63,65.63,0,0,0-46.59,18.47q-19.62,18.68-22.59,46.89-3,28.42,11.84,45.67Q689.22,354,715.61,354T761,334.67q19.3-19.08,22.46-49.12h0Z"/><path class="cls-1" d="M539.58,194l-3.76,16.44q25-21.51,48.13-21.51,20.29,0,35.38,14.82l-32.5,36.94q-11.27-10.55-23.65-10.55a34.5,34.5,0,0,0-15.37,3.35A35.23,35.23,0,0,0,535.44,244a73.6,73.6,0,0,0-9.87,18.57,194.34,194.34,0,0,0-7.83,27.2l-21.8,95.39H451.08L494.72,194h44.86Z"/><polygon class="cls-2" points="86.07 0 0 387.63 72.73 387.65 158.8 0.02 86.07 0"/><polygon class="cls-1" points="86.07 0 165 357.89 201.41 193.83 158.8 0.02 86.07 0"/><path class="cls-1" d="M431.8,194L406.51,305.24A240.8,240.8,0,0,1,399.85,330a135.47,135.47,0,0,1-7.13,17.66q-7.11,13.6-21.62,24.15-24.61,17.86-61.75,17.86-35.32,0-54.53-18.06-19.19-18.27-16-48.91,0.49-4.67,1.66-11t3-14.41L267,194h44.86L287.37,301.38q-1.54,6.9-2.49,12.08t-1.31,8.63q-3.18,30.25,32.34,30.24,19.28,0,29.46-10t15.85-34.91L387.15,194H431.8Z"/></svg>